<?xml version="1.0" encoding="UTF-8"?>
<!DOCTYPE svg  PUBLIC '-//W3C//DTD SVG 1.1//EN'  'http://www.w3.org/Graphics/SVG/1.1/DTD/svg11.dtd'>
<svg id="misc-battlenet" enable-background="new 0 0 128 128" version="1.1" viewBox="0 0 128 128" xml:space="preserve" xmlns="http://www.w3.org/2000/svg">
	<path d="m37.26 99.014c-3.938 0.151-7.777-0.624-9.239-8.482-1.212-6.513 10.3-26.355 10.3-26.355-2.423-2.878-5.453-18.933-5.453-18.933-3.938-1.06-22.568 0.454-22.568 0.454 2.423-3.332 22.72-4.544 22.72-4.544-0.454-9.239 3.181-16.055 6.362-16.51 3.181-0.454 7.725 5.15 7.725 5.15-0.454-2.272 0.303-20.145 10.3-19.842s21.962 23.629 21.962 23.629c4.544-0.454 19.387 4.695 19.387 4.695 3.484-1.818 10.148-19.993 10.148-19.993 2.121 5.604-7.422 21.811-7.422 21.811 4.544 2.575 10.905 7.422 11.966 12.572 1.06 5.15-8.633 5.604-8.633 5.604 3.635 2.423 12.269 7.27 12.875 15.752 0.751 10.513-32.565 10.451-32.565 10.451-0.909 3.181-13.935 14.541-13.935 14.541 0.757 2.878 12.723 18.933 12.723 18.933-3.787 1.666-15.904-17.267-15.904-17.267-6.816 4.392-13.935 5.15-16.813 2.878s0.303-9.391 0.303-9.391c-0.607 1.06-10.301 4.696-14.239 4.847zm51.296-48.772c-1.717-4.847-7.472-9.189-7.472-9.189 5.655 0.808 9.997 8.684 9.997 8.684l3.837-6.059c-21.407-13.026-40.29-2.928-40.29-2.928-1.212 8.785 7.169 36.352 7.169 36.352l-4.443 1.818c-3.13-3.433-9.189-31.404-9.189-31.404-3.13 3.534-4.342 11.511-4.342 11.511-2.221-6.16 2.423-13.228 2.423-13.228l-7.068-0.303c2.323 27.769 17.672 36.453 17.672 36.453 9.997-3.837 27.567-24.133 27.567-24.133l3.938 2.827c-1.515 3.938-22.518 23.83-22.518 23.83 2.423 0.707 12.42-1.818 12.42-1.818-1.919 3.433-12.824 3.635-12.824 3.635l3.484 7.195c23.779-17.342 22.113-34.306 22.113-34.306-12.041-7.346-34.458-11.587-34.458-11.587l-0.076-5.377c10.754-0.455 32.06 8.027 32.06 8.027zm-41.299-8.633l-0.151-6.967s-2.726-2.726-3.787-3.029-4.544 1.969-4.544 10.148l8.482-0.152zm8.179 54.982c4.998 2.726 10.3-1.06 10.3-1.06l-4.241-7.725c-3.181 1.363-11.057 6.058-6.059 8.785zm-1.666-13.026s-10.148-7.27-12.875-14.238c0 0-6.059 11.057-3.181 15.904s14.39 0.151 16.056-1.666zm49.832-9.997c1.969-3.787-9.088-12.723-9.088-12.723 0 9.088-6.513 18.479-6.513 18.479 6.664 0.757 13.632-1.969 15.601-5.756zm1.06-19.236c2.121-3.181-6.059-8.936-6.059-8.936l-4.241 7.119c3.939 1.817 8.18 4.998 10.3 1.817zm-31.05-21.205s-7.573-10.905-11.663-10.905-7.725 11.814-7.119 15.298c0-1e-3 8.634-5.453 18.782-4.393z"/>
</svg>
